<svg xmlns="http://www.w3.org/2000/svg" viewBox="0 0 446.06 293.61"><title>Rope Race Logo</title><g id="Layer_2" data-name="Layer 2"><g id="Layer_1-2" data-name="Layer 1"><path d="M0,257.48,66.16,255c-.08-.15-.12-.38-.26-.49-2.12-1.63-2.94-4.84-.76-8a14.73,14.73,0,0,1,2-2.29c8.86-8.7,17.76-17.36,26.61-26.07q12-11.82,23.9-23.72c.42-.41.79-.87,1.24-1.37-1.7-1-3.33-1.88-4.9-2.86-5.07-3.14-8.58-7.46-9.66-13.46a24.86,24.86,0,0,1,2.38-15.42c3.8-7.94,10.06-13.48,17.6-17.7,6.81-3.81,14.23-5.81,21.87-7a132,132,0,0,1,19.25-1.66c4.66-.07,9.32-.19,14-.11,8.08.15,16.16.45,24.25.65,2.52.06,5,0,7.71,0-1.17-1.85-.58-3.93-.77-5.93-.3-3.13.54-6.06,1.38-9a24.69,24.69,0,0,1,1.34-2.53,6.48,6.48,0,0,0,.73-2.48c-.07-4.35-.34-8.7-.37-13.06,0-5.85,0-11.7.09-17.55,0-2.6.26-5.21.43-7.81a6.19,6.19,0,0,1,.35-1.86,15.36,15.36,0,0,0,.77-5.71c0-1.43.31-2.85.44-4.28a2.14,2.14,0,0,0-.11-1.27c-1.12-1.6-1.08-3.44-1.27-5.25a8,8,0,0,0-.65-2.55c-.1.23-.2.46-.29.69-.6,1.6-1.28,3.17-1.76,4.8-.36,1.24-.38,2.57-.67,3.83-.74,3.23-1.51,6.45-2.33,9.65a2.35,2.35,0,0,0,.3,2.49,2,2,0,0,1,.42,1.46c-.4,2.44.21,4.85.07,7.26,0,.43-.21,1.15-.45,1.22-.65.17-1.37.7-2.08,0s-1.38-1.05-1.91-1.7a6.48,6.48,0,0,1-.66-1.76c-.15-.4-.33-.8-.56-1.34,1.22-1.38.22-3.22.49-4.92,0-.27,0-.68.11-.79.89-.69.77-1.61.73-2.55a51.8,51.8,0,0,1,1.45-14.72c.68-2.64.68-5.45,1.31-8.1.71-3,.46-6.16,1.84-9a5.06,5.06,0,0,1,3.51-2.84c1.87-.49,3.76-.91,5.57-1.57s1.94-1,1.71-3a4.93,4.93,0,0,0-1.82-3.8.89.89,0,0,1-.35-.42c-.58-2.26-1.83-4.33-1.45-6.88A17.76,17.76,0,0,1,218,20.54c.72-2,2.8-2.44,4.5-3a5.73,5.73,0,0,1,6.87,2.35A16.49,16.49,0,0,1,231,23.59c.08.17-.11.46-.18.69a3.74,3.74,0,0,0-.26,1.06,9.15,9.15,0,0,1-1.21,4.4c-.85,1.91-1.3,4,.25,6,.27-.23.57-.47.86-.7,1.56-1.25,3.14-2.48,4.67-3.76a9.8,9.8,0,0,0,1.39-1.55c1.27-1.66,2.5-3.34,3.78-5a2.88,2.88,0,0,1,1-.86,2.52,2.52,0,0,0,1.54-3c-.42-2.71,0-5.41.08-8.12a12.84,12.84,0,0,0-.78-6.06,3.94,3.94,0,0,0-1.43-1.62c-1.34-.8-1.26-2.21-1.6-3.41-.09-.29.56-1.09,1-1.19A12.93,12.93,0,0,1,244.19,0a3.39,3.39,0,0,1,2.07,1.71c.39.72.19,1.74.33,2.62s.4,1.76.59,2.64a4,4,0,0,1,.24,1.4c-.6,3.2.22,6.29.58,9.43a30.87,30.87,0,0,1,.09,5.44,6,6,0,0,1-1,2.57c-2.29,3.61-4.67,7.17-7,10.77-.54.84-1.3,1.65-.4,2.8.22.29-.1,1.07-.29,1.59a25.07,25.07,0,0,0-.91,13.19,42.63,42.63,0,0,1,.43,7.41,62.67,62.67,0,0,0,.77,7.32c.18,1.51.2,1.51-1.28,1.76-2,.35-2.21.6-1.72,2.3a140.61,140.61,0,0,1,3.59,14.94c.61,3.47-.06,6.82-.12,10.22-.05,2.67-.06,5.35-.07,8,0,.67.12,1.34.1,2a5.63,5.63,0,0,0,1,3.87c.94,1.22.84,2.8.71,4.31-.22,2.59-.53,5.19-.57,7.79a14,14,0,0,0,.79,3.76c.19.67.62,1.28.84,1.94.15.49.38,1.23.15,1.51-1.12,1.35-.14,2.6,0,4a7.53,7.53,0,0,0,.83.11c5.67,0,11.34,0,17-.11,7-.13,14.08-.59,21.12-.51,11.56.14,23.07,1,34.32,4,8.67,2.3,16.38,6.31,22.62,12.85,4.79,5,8.26,10.82,9.2,17.78,1.19,8.76-2,15.7-9.51,20.51-1.68,1.08-3.45,2-5.33,3.14,1.15,1.25,2.22,2.52,3.39,3.68q13,13.05,26.14,26.07,9.08,9,18.17,18.06c1.49,1.47,3.11,2.81,4.46,4.39,2.73,3.22,2.57,6.55-.28,9.73a1.72,1.72,0,0,0-.2.38l60.88,2.15v.39c-2.2,0-4.39,0-6.58,0-9.39.21-18.79.45-28.18.67q-10.4.24-20.8.44-13.58.25-27.17.46c-4.51.07-9,.16-13.53.21-6.94.09-13.88.15-20.81.23-6.38.07-12.75.18-19.13.22q-22.16.14-44.32.22-32.18.11-64.35.12c-13.76,0-27.53-.12-41.29-.21q-13-.09-26.07-.23-10.25-.09-20.47-.22l-17.56-.23-15.66-.22-14.09-.22-24.94-.45q-10.84-.21-21.69-.45C13,258.09,6.48,257.9,0,257.73ZM226.71,94.07a4.59,4.59,0,0,0-.5.87c-.46,1.87-1,3.74-1.32,5.63-.48,2.52-.9,5.05-1.29,7.59a34.57,34.57,0,0,0-.72,6c.05,1.94.46,3.84-.74,5.58a1.22,1.22,0,0,0-.16.54c-.3,3.23-1.64,6.31-1,9.7a6.15,6.15,0,0,1-1.37,5.34h3.75V252.91h6.43V135.23h4c0-1.79.08-3.5,0-5.2-.22-4-.33-8.12-.86-12.14-.31-2.34-.22-4.77-1.13-7-.14-.33.08-.8.13-1.21A111.44,111.44,0,0,0,226.71,94.07ZM318.64,253.9c-13.79-21.37-28.32-41.89-43.76-61.81a28,28,0,0,0,.52,4.46c2.8,14.74,5.64,29.47,8.39,44.22.77,4.12,2.34,8.21.95,12.64Zm-151.71-.68a10.91,10.91,0,0,1-.33-6.39c1.21-6,2.56-11.86,3.76-17.81q3.63-17.9,7.15-35.81c.07-.32.07-.67.11-1l-.32-.12c-15.67,19.71-29.88,40.45-44.1,61.55Zm103.12-89.41c.39,2.74.76,5.39,1.19,8,0,.21.51.47.79.49,1.41.07,2.83.07,4.24.08,4.32,0,8.63.21,12.94.11a13.17,13.17,0,0,0,7.29-2.16,1.72,1.72,0,0,0,.48-2.76,5.47,5.47,0,0,0-1.22-1.13,15.53,15.53,0,0,0-8.76-2.61C281.46,163.72,275.92,163.81,270.05,163.81Zm-87.41,0h-.8c-2.65,0-5.29,0-7.94-.07-4.17-.12-8.35-.22-12.44.76a11.77,11.77,0,0,0-5.54,2.76c-1.36,1.31-1.23,2.59.45,3.37a14.5,14.5,0,0,0,4.52,1.5c3.5.35,7,.46,10.57.49,3.23,0,6.47-.18,9.78-.28C181.7,169.48,182.16,166.7,182.64,163.77Z"/><path d="M67.89,279.56v13.37H64V264.34H71c3.76,0,7.53,0,11.3,0a19.87,19.87,0,0,1,7.09,1.31c4.7,1.79,5,7.33,2,10.4a12.24,12.24,0,0,1-7.8,3.45l-.73.12L95.52,293c-1.77,0-3.3,0-4.83,0-.23,0-.48-.31-.68-.53-3.51-3.9-7-7.8-10.52-11.73A2.87,2.87,0,0,0,77,279.53C74.05,279.63,71.06,279.56,67.89,279.56Zm.06-2.63c5,0,9.87.08,14.75,0a7,7,0,0,0,5.76-2.72,3.74,3.74,0,0,0-1.76-6,14.91,14.91,0,0,0-4.25-.72c-4.47-.07-8.94,0-13.4,0a10.7,10.7,0,0,0-1.1.1Z"/><path d="M236.81,279.65v13.27H233V264.51a3.88,3.88,0,0,1,.61-.11c6.3,0,12.6-.1,18.9,0a18.14,18.14,0,0,1,5.75,1.22c4.14,1.54,5.34,6.18,2.67,9.72a10.65,10.65,0,0,1-6.93,3.91c-.64.12-1.29.21-2.14.34L264.45,293c-1.77,0-3.24.07-4.71-.05-.41,0-.84-.54-1.18-.91-3.55-3.93-7.07-7.88-10.63-11.79a2.23,2.23,0,0,0-1.41-.65c-2.94-.06-5.89,0-8.84,0A8.73,8.73,0,0,0,236.81,279.65Zm-.05-2.7h14.05a4.51,4.51,0,0,0,1.22-.08,19.21,19.21,0,0,0,3.29-1,4.58,4.58,0,0,0,2.86-4.72c-.25-1.86-1.41-3-3.87-3.39a38,38,0,0,0-5.55-.36c-3.65,0-7.3,0-10.95.06-.46,0-1.05-.14-1.05.64Z"/><path d="M122.74,293.58a23.1,23.1,0,0,1-9.15-1.82,12.38,12.38,0,0,1-7.6-9.67c-.72-4.33-.43-8.54,2.25-12.29a13.84,13.84,0,0,1,8.5-5.35,25.85,25.85,0,0,1,12.81.14,13.1,13.1,0,0,1,10.2,12.58c.22,4.16-.43,8.1-3.28,11.39-2.42,2.79-5.63,4.05-9.17,4.6C125.8,293.4,124.26,293.45,122.74,293.58Zm-13-15c0,5.73,2.9,9.67,8.35,11.23a17.35,17.35,0,0,0,7.85.38c5.83-1,9.13-4.43,9.69-10.29.54-5.7-1.89-10.23-7-12.13a17.53,17.53,0,0,0-8.14-.83C114,267.64,109.77,272.17,109.78,278.59Z"/><path d="M197.13,267.4v8.79H218.3v3.09H197.17v10.59h22.45v3.05H193.18V264.41h26.44v3Z"/><path d="M386.35,276.14a2.28,2.28,0,0,1,.15.31c.31,2.88.31,2.88-2.55,2.88H365.31V289.9h22.51v3H361.33V264.43h26.43v3H365.3v8.75Z"/><path d="M304.77,293c-1.43,0-2.7.05-4,0a1.37,1.37,0,0,1-.87-.76q-1.15-2.67-2.17-5.38a1.11,1.11,0,0,0-1.23-.83q-8.06,0-16.11,0a1.16,1.16,0,0,0-1.31.87c-.67,1.81-1.45,3.58-2.14,5.38a1,1,0,0,1-1.14.77c-1.14-.05-2.28,0-3.59,0,1.22-2.8,2.37-5.45,3.53-8.09,2.82-6.44,5.67-12.86,8.44-19.31a1.74,1.74,0,0,1,2-1.28c1.67.09,3.35,0,5,.05a1.34,1.34,0,0,1,1,.62q6.23,13.69,12.39,27.44A4.42,4.42,0,0,1,304.77,293Zm-23.89-10.37h15a2,2,0,0,0,0-.42c-2.16-4.78-4.3-9.56-6.51-14.31a1.58,1.58,0,0,0-1.25-.54,1.43,1.43,0,0,0-1,.69c-1,2.27-2,4.58-2.92,6.87Z"/><path d="M347.54,282.7a11.76,11.76,0,0,1-7.11,9A22,22,0,0,1,322,291.5a12,12,0,0,1-6.95-9,18.26,18.26,0,0,1,0-7.65,12.49,12.49,0,0,1,8.48-9.71,24.83,24.83,0,0,1,16.13-.2c4.21,1.34,6.69,4.36,7.62,8.87-1.24,0-2.38,0-3.52,0a.76.76,0,0,1-.52-.46c-1.25-3.91-4.3-5.49-8-6.17a16.58,16.58,0,0,0-10,1,10.3,10.3,0,0,0-6.4,9.44c-.26,4.19.8,7.84,4.34,10.43a14.38,14.38,0,0,0,9.11,2.46,14.09,14.09,0,0,0,6.35-1.51,8.53,8.53,0,0,0,4.69-5.39,1,1,0,0,1,1.17-.86C345.48,282.74,346.44,282.7,347.54,282.7Z"/><path d="M152.91,264.35h6c3.91,0,7.83-.09,11.74.1a17,17,0,0,1,5.29,1.2c3.91,1.52,5.34,5.29,3.68,9.17a9.06,9.06,0,0,1-5.09,4.75,17.77,17.77,0,0,1-6.86,1.27c-3.58.06-7.16,0-10.85,0v12.05h-4Zm3.89,13.32a4.74,4.74,0,0,0,.59.1c3.84,0,7.68.12,11.52-.06a12,12,0,0,0,4.56-1.25,4.47,4.47,0,0,0,2.7-4.72c-.2-2.25-1.69-3.39-3.67-3.81a27.31,27.31,0,0,0-5.19-.47c-3.14-.06-6.27,0-9.4,0-.48,0-1.12-.13-1.12.71C156.8,271.33,156.8,274.45,156.8,277.67Z"/></g></g></svg>