<svg xmlns="http://www.w3.org/2000/svg" viewBox="0 0 445.92 125.71"><defs><style>.cls-1{fill:#fff;}</style></defs><title>Asset 1</title><g id="Layer_2" data-name="Layer 2"><g id="Layer_1-2" data-name="Layer 1"><path class="cls-1" d="M385,120.6a2,2,0,0,1,.2-.38c2.85-3.18,3-6.51.28-9.73-1.35-1.58-3-2.92-4.46-4.39Q372,97,362.89,88,349.75,75,336.75,62c-1.17-1.16-2.24-2.43-3.39-3.68,1.88-1.14,3.65-2.06,5.33-3.14,7.51-4.81,10.7-11.75,9.51-20.51-.94-7-4.41-12.78-9.2-17.78C332.76,10.32,325.05,6.31,316.38,4,305.13,1,293.62.15,282.06,0c-7-.08-14.12.38-21.12.51-5.66.11-11.33.11-17,.11-.28,0-14.15-.16-14.15-.16V118.15h-6.43V.56S206.2.83,203.68.77c-8.09-.2-16.17-.5-24.25-.65-4.68-.08-9.34,0-14,.11a133.44,133.44,0,0,0-19.25,1.62C138.54,3,131.12,5,124.31,8.85c-7.54,4.22-13.8,9.76-17.6,17.7A24.86,24.86,0,0,0,104.33,42c1.08,6,4.59,10.32,9.66,13.46,1.57,1,3.2,1.86,4.9,2.86-.45.5-.82,1-1.24,1.37q-11.9,11.9-23.9,23.72C84.9,92.09,76,100.75,67.14,109.45a15.56,15.56,0,0,0-2,2.29c-2.18,3.16-1.36,6.37.76,8,.14.11.18.34.26.49L0,122.72V123l19.31.52q10.85.24,21.69.45l24.91.45,14.09.22,15.66.21,17.56.23q10.22.14,20.47.22,13.06.14,26.07.23c13.76.09,27.53.21,41.29.21q32.17,0,64.35-.12,22.16-.07,44.32-.22c6.38,0,12.75-.15,19.13-.22,6.93-.08,13.87-.14,20.81-.23,4.53,0,9-.14,13.53-.21q13.59-.21,27.17-.46,10.39-.19,20.8-.44c9.39-.22,18.79-.46,28.18-.67h6.58v-.39ZM177.51,58.45Q174,76.36,170.36,94.26c-1.2,5.95-2.55,11.81-3.76,17.81a10.89,10.89,0,0,0,.33,6.39l-33.73.42c14.22-21.1,28.43-41.84,44.1-61.55l.32.12C177.58,57.78,177.58,58.13,177.51,58.45Zm-6-20.59c-3.57,0-7.07-.14-10.57-.49a14.16,14.16,0,0,1-4.52-1.5c-1.68-.78-1.81-2.06-.45-3.37a11.86,11.86,0,0,1,5.54-2.76c4.09-1,8.27-.88,12.44-.76,2.65.07,5.29.07,7.94.07h.79c-.47,2.91-.93,5.68-1.39,8.53C177.93,37.68,174.69,37.86,171.46,37.86Zm99.78-.81c-.43-2.6-.8-5.25-1.19-8,5.87,0,11.41-.11,16.95,0a15.5,15.5,0,0,1,8.76,2.61A6,6,0,0,1,297,32.81a2.21,2.21,0,0,1,.33.47h0a1.72,1.72,0,0,1-.82,2.28,13.1,13.1,0,0,1-7.29,2.16c-4.31.1-8.62-.11-12.94-.11-1.41,0-2.83,0-4.24-.08C271.75,37.52,271.24,37.26,271.24,37.05Zm13.5,81.6c1.39-4.43-.18-8.52-.95-12.64C281,91.26,278.2,76.53,275.4,61.79a27.83,27.83,0,0,1-.52-4.46c15.44,19.92,30,40.44,43.76,61.81Z"/></g></g></svg>